# xmcd
#
# Track frame offsets:
#	150
#	21283
#	48900
#	75892
#	95467
#	117624
#	134064
#	151554
#	172775
#	191339
#	219935
#	240040
#	252490
#	282345
#	303900
#
# Disc length: 4323 seconds
#
# Revision: 0
# Processed by: cddbd v1.5.1PL0 Copyright (c) Steve Scherf et al.
# Submitted via: audiograbber 1.81.03
#
DISCID=b510e10f
DTITLE=Various Artist - The Sound Of The Soul
DYEAR=2003
DGENRE=Ethnic
TTITLE0=Chinese Orchestra - Mu Ming Sheng Yun
TTITLE1=Alihan Samedov - Sari Gelin
TTITLE2=Okay Temiz - Kutahia'nin Pinarlari I Kutahya's Fountain
TTITLE3=Fred Morrison - Jigs
TTITLE4=R. Abou-Khalil - Waiting
TTITLE5=Chines Bamboo Flute Music - The Maidens of the
TTITLE6=Zakir Hussain - Water Girl
TTITLE7=Glen Velez - White-Throated Sparrow
TTITLE8=Goro  Yamaguchi - Yugure-No-Kyoku
TTITLE9=Hariprasad and Zakir Hussain - Rag Ahir Bhairav. SLow gat in rupak tal fa
TTITLE9=st gat in teental
TTITLE10=Trio Liudvig Garibian - Otar amaji
TTITLE11=G. Dabagian and G. Takuchian - Tui tui
TTITLE12=K. Miyata - Sanya
TTITLE13=Ron Korb - Song of Sunda
TTITLE14=Dj. Gasparyan - I beg you, Mountains
EXTD=
EXTT0=
EXTT1=
EXTT2=
EXTT3=
EXTT4=
EXTT5=
EXTT6=
EXTT7=
EXTT8=
EXTT9=
EXTT10=
EXTT11=
EXTT12=
EXTT13=
EXTT14=
PLAYORDER=
